<svg xmlns="http://www.w3.org/2000/svg" width="18" height="18" viewBox="0 0 18 18">
    <path fill="#FFD553" fill-rule="evenodd" d="M17.507 6.473l-5.301-.361a.844.844 0 0 1-.733-.544L9.496.342a.531.531 0 0 0-.992 0L6.526 5.568a.843.843 0 0 1-.732.544l-5.3.36A.529.529 0 0 0 .18 7.4l4.137 3.611c.236.207.339.53.265.836l-1.333 5.5a.53.53 0 0 0 .808.565l4.475-2.973a.844.844 0 0 1 .934 0l4.475 2.973a.529.529 0 0 0 .807-.565l-1.332-5.5a.846.846 0 0 1 .265-.836L17.82 7.4a.53.53 0 0 0-.312-.927z"/>
</svg>
